<svg version="1.1"
     width="600" height="800"
     xmlns="http://www.w3.org/2000/svg">

  <rect id="rect_border" x="0" y="0" width="600" height="800" stroke="black" fill="none" />

  <defs id="def_shapes">
  <symbol id="blank" height="10" width="10" viewBox="0 0 10 10">
    <rect x="0" y="0" height="10" width="10" stroke="black" stroke-opacity="20%" fill="none" />
  </symbol>

  <symbol id="baseShape01" height="20" width="20" viewBox="0 0 20 20">
    <path d="
        M -5,10
        L 0,5
        q 3.5,-3.5 10,-3.5
        T 20,5
        l 5,5 -5,5
        L 15,10
        q -1.5,-1.5 -5,-1.5
        T 5,10
        l -5,5
        z
      "
      fill="cyan" stroke="black" stroke-width="1"
    />
    <path d="M 10,15 L 25,0 30,5 15,20 z" stroke="black" fill="cyan" stroke-width="1" />
    <path d="M 0,15 L 5,10 20,25 15,30 z" stroke="black" fill="cyan" stroke-width="1" />
    <rect x="0" y="0" height="10" width="10" stroke="black" stroke-opacity="20%" fill="none" />
    <rect x="10" y="10" height="10" width="10" stroke="black" stroke-opacity="20%" fill="none" />
    <rect x="10" y="0" height="10" width="10" stroke="black" stroke-opacity="20%" fill="none" />
  </symbol>

  <symbol id="baseShape02" height="10" width="20" viewBox="0 0 20 10">
    <path d="
        M -5,1.5
        L 17,1.5 
        Q 18.5,1.5 18.5,3
        L 18.5,15
        L 11.5,15 11.5,10
        q 0,-1.5 -1.5,-1.5
        l -25,0
        z
      "
      fill="cyan" stroke="black" stroke-width="1"
    />
    <rect x="0" y="0" height="10" width="10" stroke="black" stroke-opacity="20%" fill="none" />
    <rect x="10" y="0" height="10" width="10" stroke="black" stroke-opacity="20%" fill="none" />
  </symbol>

  <symbol id="tileS_W" height="10" width="10" viewBox="0 0 10 10">
    <use href="#baseShape02" transform="matrix( 1  0  0  1  -10  0 )" />
  </symbol>

  <symbol id="tileW_E" height="10" width="10" viewBox="0 0 10 10">
    <use href="#baseShape02" transform="matrix( 1  0  0  1  0 0 )" />
  </symbol>

  <symbol id="tileSW_E" height="10" width="10" viewBox="0 0 10 10">
    <use href="#baseShape01" transform="matrix( 1  0  0  1  0 0 )" />
  </symbol>

  <symbol id="tileSWx_E" height="10" width="10" viewBox="0 0 10 10">
    <use href="#baseShape01" transform="matrix(-1  0  0  1 20 0 )" />
  </symbol>

  <symbol id="tileSWx_NE" height="10" width="10" viewBox="0 0 10 10">
    <use href="#baseShape01" transform="matrix(1 0 0 1 -10 -10 )" />
  </symbol>
  </defs>

  <g id="gr-base-shapes" transform="matrix(4 0 0 4 10 10)" >
    <use href="#baseShape02" transform="matrix( 1  0  0  1  0  0 )" />
    <use href="#baseShape01" transform="matrix( 1  0  0  1  20  0 )" />
  </g>

  <g id="gr_tiles" transform="matrix(4 0 0 4 10 100)"></g>

  <g id="gr_grid" transform="matrix(4 0 0 4 10 10)"></g>
  <script type="module" href="main.ts" />
</svg>
